<?xml version="1.0" encoding="UTF-8" standalone="no"?>
<!DOCTYPE svg PUBLIC "-//W3C//DTD SVG 1.1//EN" "http://www.w3.org/Graphics/SVG/1.1/DTD/svg11.dtd">
<svg width="100%" height="100%" viewBox="0 0 594 115" version="1.1" xmlns="http://www.w3.org/2000/svg" xmlns:xlink="http://www.w3.org/1999/xlink" xml:space="preserve" xmlns:serif="http://www.serif.com/" style="fill-rule:evenodd;clip-rule:evenodd;stroke-linejoin:round;stroke-miterlimit:2;">
    <g transform="matrix(1,0,0,1,-134,-210)">
        <path d="M218.47,257.82C217.38,253.61 215.61,249.86 213.17,246.61C210.72,243.36 207.52,240.72 203.59,238.66C199.66,236.61 193.77,235.16 187.98,235.58C166.57,237.13 165.46,255.9 163.52,259.33L163.17,248.76L163.17,211.81L133.8,211.81L133.8,323.15L163.17,323.15L163.17,289.16C163.17,284.02 164.51,278.28 167.14,274.8C169.75,271.33 173.49,271.03 178.4,271.03C180.91,271.03 182.95,271.51 184.55,272.48C186.15,273.45 187.44,274.76 188.4,276.41C189.37,278.07 190.02,279.98 190.36,282.15C190.71,284.31 190.87,286.59 190.87,288.98L190.87,323.15L220.07,323.15L220.07,270.47C220.07,266.26 219.53,262.04 218.45,257.83L218.47,257.82Z" style="fill-rule:nonzero;"/>
    </g>
    <g transform="matrix(1,0,0,1,-134,-210)">
        <path d="M322.39,260.21C319.88,254.64 316.47,249.89 312.13,246.02C307.79,242.14 302.78,239.18 297.08,237.12C291.37,235.07 285.28,234.04 278.79,234.04C272.3,234.04 266.33,235.07 260.57,237.12C254.81,239.17 249.8,242.14 245.52,246.02C241.24,249.89 237.86,254.63 235.35,260.21C232.84,265.8 231.59,272.07 231.59,279.02C231.59,285.97 232.84,292.28 235.35,297.92C237.86,303.57 241.24,308.36 245.52,312.29C249.8,316.22 254.81,319.27 260.57,321.43C266.33,323.61 272.4,324.69 278.79,324.69C285.18,324.69 291.37,323.6 297.08,321.43C302.78,319.27 307.79,316.22 312.13,312.29C316.47,308.36 319.88,303.57 322.39,297.92C324.9,292.29 326.15,285.99 326.15,279.02C326.15,272.05 324.9,265.8 322.39,260.21ZM297.86,287.06C297,289.69 295.71,292.06 294.01,294.16C292.3,296.28 290.19,297.95 287.68,299.21C285.17,300.46 282.27,301.08 278.96,301.08C275.65,301.08 272.75,300.46 270.24,299.21C267.73,297.96 265.62,296.28 263.91,294.16C262.2,292.06 260.92,289.69 260.06,287.06C259.21,284.45 258.78,281.76 258.78,279.02C258.78,276.28 259.22,273.61 260.06,270.98C260.92,268.37 262.18,266.06 263.82,264.06C265.48,262.07 267.55,260.43 270.06,259.18C272.57,257.93 275.48,257.31 278.79,257.31C282.1,257.31 285,257.93 287.51,259.18C290.02,260.43 292.13,262.07 293.84,264.06C295.55,266.05 296.86,268.37 297.77,270.98C298.68,273.61 299.14,276.28 299.14,279.02C299.14,281.76 298.7,284.44 297.86,287.06Z" style="fill-rule:nonzero;"/>
    </g>
    <g transform="matrix(1,0,0,1,-134,-210)">
        <path d="M408.32,258.93C406.88,253.3 404.63,248.61 401.57,244.91C398.49,241.21 394.47,238.47 389.51,236.71C384.54,234.94 378.48,234.05 371.29,234.05C364.1,234.05 357.53,235.26 350.87,237.65C344.19,240.05 338.35,243.63 333.33,248.42L347.53,263.65C350.14,261.25 353.32,259.19 357.02,257.49C360.72,255.78 364.57,254.92 368.56,254.92C372.9,254.92 376.54,255.92 379.51,257.91C382.47,259.92 383.95,263.02 383.95,267.23L383.95,268.6C377.79,268.6 371.47,268.93 364.96,269.63C358.46,270.31 352.57,271.68 347.27,273.72C341.97,275.77 337.63,278.69 334.28,282.45C330.91,286.21 329.23,291.17 329.23,297.32C329.23,302.35 330.2,306.57 332.13,309.98C334.06,313.39 336.56,316.14 339.58,318.18C342.59,320.23 345.93,321.72 349.58,322.64C353.22,323.55 356.76,324 360.17,324C365.31,324 369.13,323.48 373.25,321.03C379.77,317.15 384.29,300.37 384.29,300.37L384.79,312.89L384.79,321.95L410.44,321.95L410.44,279.03C410.44,271.28 409.73,264.59 408.31,258.94L408.32,258.93ZM384.8,287.75C384.8,293.1 383.29,297.34 380.28,300.49C377.24,303.62 372.89,305.19 367.2,305.19C365.83,305.19 364.41,305.05 362.92,304.77C361.42,304.48 360.13,304 358.98,303.32C357.85,302.63 356.9,301.72 356.15,300.59C355.41,299.44 355.05,298.08 355.05,296.48C355.05,293.97 355.85,291.95 357.44,290.41C359.04,288.87 361.07,287.71 363.51,286.91C365.96,286.11 368.75,285.57 371.89,285.28C375.02,285.01 378.13,284.86 381.21,284.86L384.79,284.86L384.79,287.78L384.8,287.75Z" style="fill-rule:nonzero;"/>
    </g>
    <g transform="matrix(1,0,0,1,-134,-210)">
        <path d="M475.7,234.56C474.61,234.45 473.49,234.39 472.36,234.39C467.12,234.39 462.5,235.76 458.51,238.53C454.52,241.28 451.44,253.91 449.28,258.26L448.93,258.26L448.93,236.88L421.92,236.88L421.92,321.69L449.96,322.02L449.96,278.28C449.96,276.57 450.31,274.58 450.99,272.31C451.67,270.03 452.79,267.93 454.33,266C455.87,264.07 457.91,262.42 460.48,261.04C463.05,259.68 466.21,259 469.97,259C471.12,259 472.28,259.06 473.47,259.17C474.48,259.28 475.52,259.44 476.57,259.71C476.77,259.76 476.96,259.8 477.16,259.86L477.25,258.11L478.35,235.06C477.67,234.83 476.78,234.67 475.71,234.55L475.7,234.56Z" style="fill-rule:nonzero;"/>
    </g>
    <g transform="matrix(1,0,0,1,-134,-210)">
        <path d="M539.39,210.58L539.39,245.84L539.04,245.84C536.65,243 533.28,240.37 528.95,237.98C524.63,235.58 519.33,234.38 513.06,234.38C506.79,234.38 501.34,235.57 496.38,237.98C491.42,240.37 487.21,243.61 483.74,247.72C481.11,250.82 478.95,254.28 477.24,258.11C477,258.64 476.77,259.17 476.56,259.71C476.26,260.45 475.97,261.22 475.7,261.99C473.81,267.41 472.87,273.08 472.87,279C472.87,284.92 473.78,290.63 475.6,296.1C477.43,301.57 480.07,306.39 483.55,310.56C487.02,314.71 491.27,318.05 496.3,320.56C501.3,323.07 507.01,324.32 513.39,324.32C519.1,324.32 524.48,323.14 529.55,320.82C534.63,318.48 538.61,308.38 541.26,298.73L541.61,298.73L541.61,321.92L567.43,321.92L567.43,210.58L539.39,210.58ZM539.13,287.24C538.16,289.85 536.79,292.2 535.02,294.25C533.25,296.3 531.12,297.95 528.61,299.21C526.1,300.46 523.25,301.08 520.06,301.08C516.87,301.08 513.85,300.46 511.34,299.21C508.83,297.96 506.72,296.31 505.01,294.25C503.3,292.19 502.02,289.82 501.16,287.15C500.31,284.48 499.88,281.76 499.88,279.02C499.88,276.28 500.32,273.61 501.16,270.98C502.02,268.37 503.31,266.06 505.01,264.06C506.72,262.07 508.83,260.43 511.34,259.18C513.85,257.93 516.75,257.31 520.06,257.31C523.37,257.31 526.1,257.93 528.61,259.18C531.12,260.43 533.25,262.1 535.02,264.15C536.79,266.19 538.16,268.53 539.13,271.16C540.1,273.77 540.58,276.46 540.58,279.2C540.58,281.94 540.1,284.61 539.13,287.24Z" style="fill-rule:nonzero;"/>
    </g>
    <g transform="matrix(1,0,0,1,-134,-210)">
        <path d="M661.56,260.89C659.46,255.19 656.51,250.36 652.75,246.36C648.99,242.37 644.49,239.32 639.24,237.22C634,235.1 628.24,234.05 621.97,234.05C615.7,234.05 609.43,235.14 603.84,237.3C598.25,239.48 593.42,242.53 589.31,246.45C585.2,250.38 581.95,255.17 579.57,260.82C577.17,266.45 575.97,272.75 575.97,279.72C575.97,286.69 577.19,293.29 579.66,298.86C582.11,304.45 585.46,309.15 589.74,312.97C594.02,316.79 599,319.69 604.71,321.69C610.41,323.68 616.45,324.7 622.84,324.7C631.5,324.7 639.11,323.13 645.67,319.99C652.23,316.86 657.48,312.39 661.49,306.57L641.99,294.26C640.06,296.87 637.55,299.02 634.47,300.67C631.4,302.33 627.64,303.15 623.18,303.15C620.67,303.15 618.26,302.76 615.91,301.96C613.57,301.16 611.47,300.06 609.58,298.62C607.71,297.2 606.17,295.52 604.97,293.57C603.76,291.64 603.05,289.48 602.82,287.07L664.55,287.07C664.67,286.04 664.73,284.97 664.73,283.82L664.73,280.41C664.73,273.11 663.67,266.62 661.56,260.91L661.56,260.89ZM602.82,269.62C602.94,267.46 603.51,265.37 604.53,263.38C605.56,261.39 606.93,259.65 608.64,258.15C610.35,256.67 612.34,255.51 614.62,254.65C616.9,253.8 619.41,253.37 622.14,253.37C627.73,253.37 631.91,254.97 634.71,258.16C637.5,261.36 638.91,265.17 638.91,269.63L602.82,269.63L602.82,269.62Z" style="fill-rule:nonzero;"/>
    </g>
    <g transform="matrix(1,0,0,1,-134,-210)">
        <path d="M726.53,234.56C725.46,234.45 724.34,234.39 723.21,234.39C717.97,234.39 713.35,235.76 709.36,238.53C705.37,241.28 702.29,253.91 700.13,258.26L699.78,258.26L699.78,236.88L672.77,236.88L672.77,321.93L700.81,321.93L700.81,278.29C700.81,276.58 701.16,274.59 701.84,272.32C702.52,270.04 703.64,267.94 705.18,266.01C706.71,264.08 708.76,262.43 711.33,261.05C713.9,259.69 717.06,259.01 720.82,259.01C721.97,259.01 723.13,259.07 724.32,259.18C725.53,259.3 726.75,259.53 728.01,259.87L729.2,235.06C728.52,234.83 727.63,234.67 726.54,234.55L726.53,234.56Z" style="fill-rule:nonzero;"/>
    </g>
</svg>
